<?xml version="1.0" encoding="UTF-8" standalone="no"?>
<!-- Generator: Adobe Illustrator 19.0.0, SVG Export Plug-In . SVG Version: 6.00 Build 0)  -->

<svg
   xmlns:dc="http://purl.org/dc/elements/1.1/"
   xmlns:cc="http://creativecommons.org/ns#"
   xmlns:rdf="http://www.w3.org/1999/02/22-rdf-syntax-ns#"
   xmlns:svg="http://www.w3.org/2000/svg"
   xmlns="http://www.w3.org/2000/svg"
   xmlns:sodipodi="http://sodipodi.sourceforge.net/DTD/sodipodi-0.dtd"
   xmlns:inkscape="http://www.inkscape.org/namespaces/inkscape"
   version="1.1"
   id="Capa_1"
   x="0px"
   y="0px"
   viewBox="0 0 319.24677 160.08321"
   xml:space="preserve"
   sodipodi:docname="inmac-logo.svg"
   width="319.24677"
   height="160.08321"
   inkscape:version="0.92.3 (unknown)"><metadata
     id="metadata3919"><rdf:RDF><cc:Work
         rdf:about=""><dc:format>image/svg+xml</dc:format><dc:type
           rdf:resource="http://purl.org/dc/dcmitype/StillImage" /><dc:title /></cc:Work></rdf:RDF></metadata><defs
     id="defs3917" /><sodipodi:namedview
     pagecolor="#ffffff"
     bordercolor="#666666"
     borderopacity="1"
     objecttolerance="10"
     gridtolerance="10"
     guidetolerance="10"
     inkscape:pageopacity="0"
     inkscape:pageshadow="2"
     inkscape:window-width="1920"
     inkscape:window-height="1021"
     id="namedview3915"
     showgrid="false"
     fit-margin-top="15"
     fit-margin-right="15"
     fit-margin-left="15"
     fit-margin-bottom="15"
     inkscape:zoom="1"
     inkscape:cx="159.19999"
     inkscape:cy="66.591605"
     inkscape:window-x="0"
     inkscape:window-y="0"
     inkscape:window-maximized="1"
     inkscape:current-layer="Capa_1" /><style
     type="text/css"
     id="style3810">
	.st0{fill:#1A1A1A;}
	.st1{fill:#5D89B4;}
	.st2{fill:#004D71;}
	.st3{fill:#009D4E;}
	.st4{fill:#FFD100;}
</style><g
     id="g3906"
     transform="translate(-59.2,-32.958398)"><g
       id="g3904"><g
         id="g3884"><path
           style="fill:#004d71"
           inkscape:connector-curvature="0"
           id="path3874"
           d="m 74.2,87 h 16.2 v 48.5 H 74.2 Z"
           class="st2" /><path
           style="fill:#004d71"
           inkscape:connector-curvature="0"
           id="path3876"
           d="m 100.3,87 h 18.6 l 22.5,30.3 h 0.1 V 87 h 15.6 v 48.5 H 139.2 L 116,104.8 h -0.1 v 30.6 h -15.6 z"
           class="st2" /><path
           style="fill:#004d71"
           inkscape:connector-curvature="0"
           id="path3878"
           d="m 166.9,87 h 23.6 l 11.1,32 h 0.1 l 11.1,-32 h 23.6 v 48.5 H 221.2 V 99.2 h -0.1 l -12.8,36.3 H 195 L 182.2,99.2 h -0.1 v 36.3 h -15.2 z"
           class="st2" /><path
           style="fill:#004d71"
           inkscape:connector-curvature="0"
           id="path3880"
           d="m 260.4,87 h 19.8 l 20.8,48.5 h -17.3 l -2.9,-7.9 h -21.2 l -2.9,7.9 h -17.3 z m 9.9,12.2 h -0.1 l -6.7,18.3 H 277 Z"
           class="st2" /><path
           style="fill:#004d71"
           inkscape:connector-curvature="0"
           id="path3882"
           d="m 362.6,116.8 c -2,10.5 -7.7,20.2 -30.7,20.2 -20.5,0 -30.5,-9 -30.5,-25.7 0,-16.2 9.4,-25.7 30.5,-25.7 14.8,0 27,3.4 30.5,20.2 h -18 c -1,-3.5 -3.3,-9.3 -12.5,-9.3 -10.1,0 -13.4,6.9 -13.4,14.9 0,8 3,14.9 13.4,14.9 7.3,0 11.6,-3.7 12.7,-9.3 h 18 z"
           class="st2" /></g><g
         id="g3902"><g
           id="g3892"><path
             style="fill:#5d89b4"
             inkscape:connector-curvature="0"
             id="path3886"
             d="m 249.3,70 c 0,-0.8 0,-1.5 0,-2.1 0,-0.3 0,-0.5 0,-0.7 0,-0.6 0,-1.1 0.2,-1.5 0.3,-0.8 0.8,-1.3 2.1,-1.7 0.9,-0.3 6.6,-1.4 13.1,-1.1 4.4,0.2 9.2,1 13.1,3.2 3.3,1.8 5.8,4.5 7.7,7.6 3.1,4.7 5.1,10.4 6.6,15.8 -2.4,-14.2 -5.8,-30.8 -18.3,-37.7 -13.2,-7.3 -34.4,-2.1 -36.6,-1.3 -3,1.1 -3.4,2.7 -3.5,5 -0.1,2.3 -0.6,9.4 -0.4,14.6 0.3,5.2 6.3,3.3 6.3,3.3 3.5,-1 6.7,-1.7 9.7,-2.2 0,-0.4 0,-0.8 0,-1.2 z"
             class="st1" /><path
             style="fill:#009d4e"
             inkscape:connector-curvature="0"
             id="path3888"
             d="m 293,93.1 c -2.3,-9.7 -6.3,-22 -15.2,-26.9 -9.7,-5.4 -24.6,-2.6 -26.2,-2.2 -2.1,0.6 -2.3,1.7 -2.3,3.2 0,0.8 0,2.3 0,4 18,-2.9 25.6,2.7 25.6,2.7 0,0 10.5,5.5 16.3,18.5 0.7,1.8 2,1.5 1.8,0.7"
             class="st3" /><path
             style="fill:#ffd100"
             inkscape:connector-curvature="0"
             id="path3890"
             d="m 274.9,74 c 0,0 -4.7,-3.4 -15.3,-3.5 -0.4,0 -0.9,0 -1.3,0 -2.7,0 -5.7,0.3 -9,0.8 0,1.8 0.1,3.9 0.3,5.7 0.4,3.5 4.6,2.4 4.6,2.4 17.5,-3.8 25.2,1.6 25.2,1.6 0,0 6.4,3.2 10.8,9.3 C 284.2,78.9 274.9,74 274.9,74 Z"
             class="st4" /></g><g
           id="g3900"><path
             style="fill:#5d89b4"
             inkscape:connector-curvature="0"
             id="path3894"
             d="m 347.4,155.9 c 0,0.8 0,1.5 0,2.1 0,0.3 0,0.5 0,0.7 0,0.6 0,1.1 -0.2,1.5 -0.3,0.7 -0.8,1.3 -2.1,1.7 -0.9,0.3 -6.6,1.4 -13.1,1.1 -4.4,-0.2 -9.2,-1 -13.1,-3.2 -3.3,-1.9 -5.8,-4.5 -7.7,-7.5 -3.1,-4.7 -5.1,-10.5 -6.6,-15.8 2.4,14.2 5.8,30.8 18.3,37.7 13.2,7.3 34.4,2.1 36.6,1.3 3,-1.1 3.4,-2.7 3.5,-5 0.1,-2.3 0.6,-9.4 0.4,-14.6 -0.3,-5.2 -6.3,-3.3 -6.3,-3.3 -3.5,1 -6.7,1.7 -9.7,2.2 0,0.3 0,0.7 0,1.1 z"
             class="st1" /><path
             style="fill:#009d4e"
             inkscape:connector-curvature="0"
             id="path3896"
             d="m 303.6,132.8 c 2.3,9.7 6.3,22 15.2,26.9 9.7,5.4 24.6,2.6 26.2,2.2 2.1,-0.6 2.3,-1.7 2.3,-3.2 0,-0.8 0,-2.3 0,-4 -18,2.9 -25.6,-2.7 -25.6,-2.7 0,0 -10.5,-5.5 -16.3,-18.5 -0.7,-1.8 -2,-1.5 -1.8,-0.7"
             class="st3" /><path
             style="fill:#ffd100"
             inkscape:connector-curvature="0"
             id="path3898"
             d="m 321.7,152 c 0,0 4.7,3.4 15.3,3.5 0.4,0 0.9,0 1.3,0 2.7,0 5.7,-0.3 9,-0.8 0,-1.8 -0.1,-3.9 -0.3,-5.7 -0.4,-3.5 -4.6,-2.4 -4.6,-2.4 -17.6,3.8 -25.2,-1.6 -25.2,-1.6 0,0 -6.4,-3.2 -10.8,-9.3 6,11.4 15.3,16.3 15.3,16.3 z"
             class="st4" /></g></g></g></g></svg>