<?xml version="1.0" encoding="UTF-8" standalone="no"?>
<!-- Generator: Adobe Illustrator 19.0.0, SVG Export Plug-In . SVG Version: 6.00 Build 0)  -->

<svg
   xmlns:dc="http://purl.org/dc/elements/1.1/"
   xmlns:cc="http://creativecommons.org/ns#"
   xmlns:rdf="http://www.w3.org/1999/02/22-rdf-syntax-ns#"
   xmlns:svg="http://www.w3.org/2000/svg"
   xmlns="http://www.w3.org/2000/svg"
   xmlns:sodipodi="http://sodipodi.sourceforge.net/DTD/sodipodi-0.dtd"
   xmlns:inkscape="http://www.inkscape.org/namespaces/inkscape"
   version="1.1"
   id="Capa_1"
   x="0px"
   y="0px"
   viewBox="0 0 16 16"
   xml:space="preserve"
   sodipodi:docname="inmac_isotipo.svg"
   width="16"
   height="16"
   inkscape:version="0.92.2 (5c3e80d, 2017-08-06)"
   inkscape:export-filename="D:\Devel\proyecta\proyecta_app\apps\core\static\core\img\favicon.png"
   inkscape:export-xdpi="96"
   inkscape:export-ydpi="96"><metadata
     id="metadata3919"><rdf:RDF><cc:Work
         rdf:about=""><dc:format>image/svg+xml</dc:format><dc:type
           rdf:resource="http://purl.org/dc/dcmitype/StillImage" /><dc:title></dc:title></cc:Work></rdf:RDF></metadata><defs
     id="defs3917" /><sodipodi:namedview
     pagecolor="#ffffff"
     bordercolor="#666666"
     borderopacity="1"
     objecttolerance="10"
     gridtolerance="10"
     guidetolerance="10"
     inkscape:pageopacity="0"
     inkscape:pageshadow="2"
     inkscape:window-width="1920"
     inkscape:window-height="1017"
     id="namedview3915"
     showgrid="false"
     fit-margin-top="0"
     fit-margin-right="0"
     fit-margin-left="0"
     fit-margin-bottom="0"
     inkscape:zoom="32.415435"
     inkscape:cx="2.1492913"
     inkscape:cy="6.9575472"
     inkscape:window-x="-8"
     inkscape:window-y="-8"
     inkscape:window-maximized="1"
     inkscape:current-layer="Capa_1" /><style
     type="text/css"
     id="style3810">
	.st0{fill:#1A1A1A;}
	.st1{fill:#5D89B4;}
	.st2{fill:#004D71;}
	.st3{fill:#009D4E;}
	.st4{fill:#FFD100;}
</style><g
     id="g3892"
     transform="matrix(0.26536988,0,0,0.26536988,-61.828621,-10.800031)"><path
       class="st1"
       d="m 249.3,70 c 0,-0.8 0,-1.5 0,-2.1 0,-0.3 0,-0.5 0,-0.7 0,-0.6 0,-1.1 0.2,-1.5 0.3,-0.8 0.8,-1.3 2.1,-1.7 0.9,-0.3 6.6,-1.4 13.1,-1.1 4.4,0.2 9.2,1 13.1,3.2 3.3,1.8 5.8,4.5 7.7,7.6 3.1,4.7 5.1,10.4 6.6,15.8 -2.4,-14.2 -5.8,-30.8 -18.3,-37.7 -13.2,-7.3 -34.4,-2.1 -36.6,-1.3 -3,1.1 -3.4,2.7 -3.5,5 -0.1,2.3 -0.6,9.4 -0.4,14.6 0.3,5.2 6.3,3.3 6.3,3.3 3.5,-1 6.7,-1.7 9.7,-2.2 0,-0.4 0,-0.8 0,-1.2 z"
       id="path3886"
       inkscape:connector-curvature="0"
       style="fill:#5d89b4" /><path
       class="st3"
       d="m 293,93.1 c -2.3,-9.7 -6.3,-22 -15.2,-26.9 -9.7,-5.4 -24.6,-2.6 -26.2,-2.2 -2.1,0.6 -2.3,1.7 -2.3,3.2 0,0.8 0,2.3 0,4 18,-2.9 25.6,2.7 25.6,2.7 0,0 10.5,5.5 16.3,18.5 0.7,1.8 2,1.5 1.8,0.7"
       id="path3888"
       inkscape:connector-curvature="0"
       style="fill:#009d4e" /><path
       class="st4"
       d="m 274.9,74 c 0,0 -4.7,-3.4 -15.3,-3.5 -0.4,0 -0.9,0 -1.3,0 -2.7,0 -5.7,0.3 -9,0.8 0,1.8 0.1,3.9 0.3,5.7 0.4,3.5 4.6,2.4 4.6,2.4 17.5,-3.8 25.2,1.6 25.2,1.6 0,0 6.4,3.2 10.8,9.3 C 284.2,78.9 274.9,74 274.9,74 Z"
       id="path3890"
       inkscape:connector-curvature="0"
       style="fill:#ffd100" /></g></svg>